<svg width="1112" height="358" viewBox="0 0 1112 358" fill="none" xmlns="http://www.w3.org/2000/svg">
    <g clip-path="url(#clip0)">
        <rect width="1112" height="358" fill="white"/>
        <rect y="-10" width="1128" height="368" fill="#FAF8F9"/>
        <path d="M499.109 177.3C499.109 183.067 498.344 187.823 496.813 191.568C495.31 195.313 493.26 198.237 490.663 200.342C488.066 202.419 485.114 203.882 481.807 204.729C478.527 205.576 475.124 206 471.598 206H456.264V149.174H470.614C474.249 149.174 477.762 149.557 481.151 150.322C484.568 151.06 487.615 152.44 490.294 154.463C493 156.458 495.146 159.301 496.731 162.991C498.316 166.654 499.109 171.423 499.109 177.3ZM485.169 177.3C485.169 172.189 484.609 168.321 483.488 165.697C482.395 163.073 480.891 161.296 478.978 160.367C477.092 159.41 474.96 158.932 472.582 158.932H469.712V196.283H472.582C475.069 196.283 477.256 195.75 479.142 194.684C481.028 193.591 482.504 191.664 483.57 188.903C484.636 186.142 485.169 182.275 485.169 177.3ZM567.938 149.174V159.014H556.212V196.119H567.938V206H531.038V196.119H542.764V159.014H531.038V149.174H567.938ZM644.351 189.395C644.351 192.921 643.422 196.037 641.563 198.743C639.732 201.449 637.094 203.567 633.65 205.098C630.206 206.629 626.065 207.394 621.227 207.394C615.87 207.394 611.374 206.615 607.738 205.057C604.13 203.472 601.137 201.517 598.759 199.194L605.565 191.65C607.67 193.481 609.993 194.903 612.535 195.914C615.077 196.898 617.865 197.39 620.899 197.39C623.715 197.39 625.997 196.789 627.746 195.586C629.496 194.356 630.37 192.634 630.37 190.42C630.37 188.343 629.632 186.716 628.156 185.541C626.708 184.366 624.002 183.177 620.038 181.974C613.396 179.951 608.668 177.573 605.852 174.84C603.064 172.079 601.67 168.54 601.67 164.221C601.67 160.75 602.627 157.784 604.54 155.324C606.481 152.864 609.078 150.992 612.33 149.707C615.583 148.395 619.164 147.739 623.072 147.739C627.473 147.739 631.354 148.381 634.716 149.666C638.078 150.923 640.989 152.727 643.449 155.078L637.094 162.376C635.181 160.763 633.117 159.574 630.903 158.809C628.689 158.016 626.434 157.62 624.138 157.62C621.569 157.62 619.505 158.098 617.947 159.055C616.389 159.984 615.61 161.365 615.61 163.196C615.61 164.399 615.952 165.41 616.635 166.23C617.319 167.05 618.508 167.829 620.202 168.567C621.897 169.278 624.248 170.111 627.254 171.068C630.835 172.161 633.896 173.473 636.438 175.004C639.008 176.507 640.962 178.407 642.301 180.703C643.668 182.999 644.351 185.896 644.351 189.395ZM700.019 147.739C704.092 147.739 707.549 148.286 710.392 149.379C713.262 150.445 715.886 151.962 718.264 153.93L711.663 161.884C710.105 160.599 708.383 159.588 706.497 158.85C704.611 158.085 702.561 157.702 700.347 157.702C697.969 157.702 695.796 158.385 693.828 159.752C691.86 161.091 690.288 163.223 689.113 166.148C687.938 169.045 687.35 172.817 687.35 177.464C687.35 184.297 688.58 189.272 691.04 192.388C693.527 195.477 696.712 197.021 700.593 197.021C703.436 197.021 705.8 196.488 707.686 195.422C709.572 194.356 711.308 193.194 712.893 191.937L719.002 199.727C716.87 201.832 714.246 203.636 711.13 205.139C708.014 206.642 704.256 207.394 699.855 207.394C694.716 207.394 690.152 206.26 686.161 203.991C682.198 201.695 679.082 198.333 676.813 193.905C674.572 189.45 673.451 183.969 673.451 177.464C673.451 171.123 674.613 165.738 676.936 161.31C679.287 156.882 682.471 153.52 686.489 151.224C690.507 148.901 695.017 147.739 700.019 147.739ZM770.242 207.394C762.179 207.394 756.015 204.852 751.751 199.768C747.514 194.657 745.396 187.222 745.396 177.464C745.396 171.013 746.571 165.588 748.922 161.187C751.273 156.759 754.443 153.411 758.434 151.142C762.425 148.873 766.88 147.739 771.8 147.739C775.955 147.739 779.453 148.381 782.296 149.666C785.139 150.951 787.667 152.645 789.881 154.75L782.829 162.048C781.107 160.517 779.453 159.383 777.868 158.645C776.283 157.907 774.479 157.538 772.456 157.538C769.914 157.538 767.645 158.221 765.65 159.588C763.682 160.927 762.124 163.073 760.976 166.025C759.828 168.95 759.254 172.79 759.254 177.546C759.254 182.493 759.65 186.429 760.443 189.354C761.263 192.279 762.493 194.383 764.133 195.668C765.773 196.925 767.85 197.554 770.365 197.554C771.704 197.554 772.962 197.404 774.137 197.103C775.312 196.775 776.406 196.351 777.417 195.832V182.835H770.283L768.971 173.405H790.127V201.654C787.284 203.403 784.223 204.797 780.943 205.836C777.69 206.875 774.123 207.394 770.242 207.394ZM859.489 149.174V159.014H847.763V196.119H859.489V206H822.589V196.119H834.315V159.014H822.589V149.174H859.489ZM920.568 159.465V206H907.12V159.465H891.171V149.174H937.173L935.779 159.465H920.568Z" fill="#6E5D84"/>
        <mask id="mask0" mask-type="alpha" maskUnits="userSpaceOnUse" x="256" y="90" width="168" height="168">
            <path fill-rule="evenodd" clip-rule="evenodd" d="M340 258C386.392 258 424 220.392 424 174C424 127.608 386.392 90 340 90C293.608 90 256 127.608 256 174C256 220.392 293.608 258 340 258ZM340 216C363.196 216 382 197.196 382 174C382 150.804 363.196 132 340 132C316.804 132 298 150.804 298 174C298 197.196 316.804 216 340 216Z" fill="#FAF8F9"/>
        </mask>
        <g mask="url(#mask0)">
            <g filter="url(#filter0_d)">
                <path d="M433 173.5C433 226.243 388.9 269 334.5 269C280.1 269 236 226.243 236 173.5C236 120.757 280.1 78 334.5 78C388.9 78 433 120.757 433 173.5Z" fill="white"/>
            </g>
            <g filter="url(#filter1_i)">
                <ellipse cx="308.01" cy="125.842" rx="98.5" ry="95.5" transform="rotate(-2.67234 308.01 125.842)" fill="#6E5D84"/>
            </g>
        </g>
    </g>
    <defs>
        <filter id="filter0_d" x="232" y="78" width="205" height="199" filterUnits="userSpaceOnUse" color-interpolation-filters="sRGB">
            <feFlood flood-opacity="0" result="BackgroundImageFix"/>
            <feColorMatrix in="SourceAlpha" type="matrix" values="0 0 0 0 0 0 0 0 0 0 0 0 0 0 0 0 0 0 127 0"/>
            <feOffset dy="4"/>
            <feGaussianBlur stdDeviation="2"/>
            <feColorMatrix type="matrix" values="0 0 0 0 0 0 0 0 0 0 0 0 0 0 0 0 0 0 0.25 0"/>
            <feBlend mode="normal" in2="BackgroundImageFix" result="effect1_dropShadow"/>
            <feBlend mode="normal" in="SourceGraphic" in2="effect1_dropShadow" result="shape"/>
        </filter>
        <filter id="filter1_i" x="205.164" y="25.8533" width="221.691" height="199.977" filterUnits="userSpaceOnUse" color-interpolation-filters="sRGB">
            <feFlood flood-opacity="0" result="BackgroundImageFix"/>
            <feBlend mode="normal" in="SourceGraphic" in2="BackgroundImageFix" result="shape"/>
            <feColorMatrix in="SourceAlpha" type="matrix" values="0 0 0 0 0 0 0 0 0 0 0 0 0 0 0 0 0 0 127 0" result="hardAlpha"/>
            <feMorphology radius="12" operator="erode" in="SourceAlpha" result="effect1_innerShadow"/>
            <feOffset dx="78"/>
            <feGaussianBlur stdDeviation="2"/>
            <feComposite in2="hardAlpha" operator="arithmetic" k2="-1" k3="1"/>
            <feColorMatrix type="matrix" values="0 0 0 0 0 0 0 0 0 0 0 0 0 0 0 0 0 0 0.34 0"/>
            <feBlend mode="normal" in2="shape" result="effect1_innerShadow"/>
        </filter>
        <clipPath id="clip0">
            <rect width="1112" height="358" fill="white"/>
        </clipPath>
    </defs>
</svg>
